<?xml version="1.0" encoding="utf-8"?>
<!-- Generator: Adobe Illustrator 18.1.1, SVG Export Plug-In . SVG Version: 6.00 Build 0)  -->
<svg version="1.1" id="Layer_1" xmlns="http://www.w3.org/2000/svg" xmlns:xlink="http://www.w3.org/1999/xlink" x="0px" y="0px"
	 width="1400px" height="980px" viewBox="0 0 1400 980" enable-background="new 0 0 1400 980" xml:space="preserve">
<g>
	<rect fill-rule="evenodd" clip-rule="evenodd" fill="#FFFFFF" width="1400" height="980"/>
</g>
<g>
	<linearGradient id="SVGID_1_" gradientUnits="userSpaceOnUse" x1="1202" y1="305.45" x2="1249" y2="305.45">
		<stop  offset="0" style="stop-color:#003189"/>
		<stop  offset="1" style="stop-color:#0563BE"/>
	</linearGradient>
	<polygon fill-rule="evenodd" clip-rule="evenodd" fill="url(#SVGID_1_)" points="1249,225 1202,279.8 1202,385.9 1249,331.1 	"/>
	<linearGradient id="SVGID_2_" gradientUnits="userSpaceOnUse" x1="1113.9519" y1="214.6971" x2="1201.9309" y2="214.6971">
		<stop  offset="0" style="stop-color:#0083DF"/>
		<stop  offset="1" style="stop-color:#17A3D4"/>
	</linearGradient>
	<polygon fill-rule="evenodd" clip-rule="evenodd" fill="url(#SVGID_2_)" points="1201.9,280 1114,280 1157.9,149.4 	"/>
	<linearGradient id="SVGID_3_" gradientUnits="userSpaceOnUse" x1="1113.9519" y1="394.5193" x2="1201.9309" y2="394.5193">
		<stop  offset="0" style="stop-color:#003189"/>
		<stop  offset="1" style="stop-color:#0563BE"/>
	</linearGradient>
	<polygon fill-rule="evenodd" clip-rule="evenodd" fill="url(#SVGID_3_)" points="1201.9,386 1114,386 1157.9,403 	"/>
	<linearGradient id="SVGID_4_" gradientUnits="userSpaceOnUse" x1="1067" y1="305.45" x2="1114" y2="305.45">
		<stop  offset="0" style="stop-color:#0083DF"/>
		<stop  offset="1" style="stop-color:#17A3D4"/>
	</linearGradient>
	<polygon fill-rule="evenodd" clip-rule="evenodd" fill="url(#SVGID_4_)" points="1067,225 1114,279.8 1114,385.9 1067,331.1 	"/>
	<linearGradient id="SVGID_5_" gradientUnits="userSpaceOnUse" x1="1114" y1="333" x2="1202" y2="333">
		<stop  offset="0" style="stop-color:#004D97"/>
		<stop  offset="1" style="stop-color:#057CD3"/>
	</linearGradient>
	<rect x="1114" y="280" fill-rule="evenodd" clip-rule="evenodd" fill="url(#SVGID_5_)" width="88" height="106"/>
	<linearGradient id="SVGID_6_" gradientUnits="userSpaceOnUse" x1="1157.9414" y1="214.4493" x2="1249.14" y2="214.4493">
		<stop  offset="0" style="stop-color:#004D97"/>
		<stop  offset="1" style="stop-color:#057CD3"/>
	</linearGradient>
	<polygon fill-rule="evenodd" clip-rule="evenodd" fill="url(#SVGID_6_)" points="1249.1,225 1201.9,279.8 1157.9,149.1 	"/>
	<linearGradient id="SVGID_7_" gradientUnits="userSpaceOnUse" x1="1112.3422" y1="279.7522" x2="1112.3422" y2="149.1464">
		<stop  offset="0" style="stop-color:#00CCFF"/>
		<stop  offset="1" style="stop-color:#8FE9DF"/>
	</linearGradient>
	<polygon fill-rule="evenodd" clip-rule="evenodd" fill="url(#SVGID_7_)" points="1066.7,225 1114,279.8 1157.9,149.1 	"/>
</g>
<g>
	<linearGradient id="SVGID_8_" gradientUnits="userSpaceOnUse" x1="763.8233" y1="360.5106" x2="870" y2="360.5106">
		<stop  offset="0" style="stop-color:#0083DF"/>
		<stop  offset="1" style="stop-color:#17A3D4"/>
	</linearGradient>
	<polygon fill-rule="evenodd" clip-rule="evenodd" fill="url(#SVGID_8_)" points="763.8,283.5 870,338.2 870,437.5 	"/>
	<linearGradient id="SVGID_9_" gradientUnits="userSpaceOnUse" x1="870" y1="360.5106" x2="976.1767" y2="360.5106">
		<stop  offset="0" style="stop-color:#004D97"/>
		<stop  offset="1" style="stop-color:#057CD3"/>
	</linearGradient>
	<polygon fill-rule="evenodd" clip-rule="evenodd" fill="url(#SVGID_9_)" points="976.2,283.5 870,338.2 870,437.5 	"/>
	<linearGradient id="SVGID_10_" gradientUnits="userSpaceOnUse" x1="870" y1="226.3537" x2="976.1767" y2="226.3537">
		<stop  offset="0" style="stop-color:#0083DF"/>
		<stop  offset="1" style="stop-color:#17A3D4"/>
	</linearGradient>
	<polygon fill-rule="evenodd" clip-rule="evenodd" fill="url(#SVGID_10_)" points="976.2,283.5 870,338.2 870,114.5 	"/>
	<linearGradient id="SVGID_11_" gradientUnits="userSpaceOnUse" x1="816.9116" y1="338.2415" x2="816.9116" y2="114.4659">
		<stop  offset="0" style="stop-color:#00CCFF"/>
		<stop  offset="1" style="stop-color:#8FE9DF"/>
	</linearGradient>
	<polygon fill-rule="evenodd" clip-rule="evenodd" fill="url(#SVGID_11_)" points="763.8,283.5 870,338.2 870,114.5 	"/>
</g>
<g>
	<linearGradient id="SVGID_12_" gradientUnits="userSpaceOnUse" x1="437.0061" y1="276.3476" x2="566" y2="276.3476">
		<stop  offset="0" style="stop-color:#0083DF"/>
		<stop  offset="1" style="stop-color:#17A3D4"/>
	</linearGradient>
	<polygon fill-rule="evenodd" clip-rule="evenodd" fill="url(#SVGID_12_)" points="437,174.5 566,240.1 566,378.2 	"/>
	<linearGradient id="SVGID_13_" gradientUnits="userSpaceOnUse" x1="566" y1="276.3476" x2="694.9938" y2="276.3476">
		<stop  offset="0" style="stop-color:#004D97"/>
		<stop  offset="1" style="stop-color:#057CD3"/>
	</linearGradient>
	<polygon fill-rule="evenodd" clip-rule="evenodd" fill="url(#SVGID_13_)" points="695,174.5 566,240.1 566,378.2 	"/>
	<linearGradient id="SVGID_14_" gradientUnits="userSpaceOnUse" x1="565.5292" y1="239.6353" x2="565.5292" y2="174">
		<stop  offset="0" style="stop-color:#00CCFF"/>
		<stop  offset="1" style="stop-color:#8FE9DF"/>
	</linearGradient>
	<polygon fill-rule="evenodd" clip-rule="evenodd" fill="url(#SVGID_14_)" points="694.5,174 565.5,239.6 436.5,174 	"/>
</g>
<g>
	<linearGradient id="SVGID_15_" gradientUnits="userSpaceOnUse" x1="143" y1="303.3772" x2="249" y2="303.3772">
		<stop  offset="0" style="stop-color:#0083DF"/>
		<stop  offset="1" style="stop-color:#17A3D4"/>
	</linearGradient>
	<polygon fill-rule="evenodd" clip-rule="evenodd" fill="url(#SVGID_15_)" points="143,222.9 249,277.7 249,383.8 143,329.1 	"/>
	<linearGradient id="SVGID_16_" gradientUnits="userSpaceOnUse" x1="249" y1="303.3772" x2="355" y2="303.3772">
		<stop  offset="0" style="stop-color:#004D97"/>
		<stop  offset="1" style="stop-color:#057CD3"/>
	</linearGradient>
	<polygon fill-rule="evenodd" clip-rule="evenodd" fill="url(#SVGID_16_)" points="355,222.9 249,277.7 249,383.8 355,329.1 	"/>
	<linearGradient id="SVGID_17_" gradientUnits="userSpaceOnUse" x1="249" y1="277.6794" x2="249" y2="168.1707">
		<stop  offset="0" style="stop-color:#00CCFF"/>
		<stop  offset="1" style="stop-color:#8FE9DF"/>
	</linearGradient>
	<polygon fill-rule="evenodd" clip-rule="evenodd" fill="url(#SVGID_17_)" points="142.8,222.9 249,277.7 355.2,222.9 249,168.2 	
		"/>
</g>
<g>
	<linearGradient id="SVGID_18_" gradientUnits="userSpaceOnUse" x1="1135.2704" y1="714.792" x2="1135.2704" y2="545.1409">
		<stop  offset="0" style="stop-color:#00CCFF"/>
		<stop  offset="1" style="stop-color:#8FE9DF"/>
	</linearGradient>
	<polygon fill-rule="evenodd" clip-rule="evenodd" fill="url(#SVGID_18_)" points="1147.5,573.9 1217.2,545.1 1123,686 
		1053.4,714.8 	"/>
	<linearGradient id="SVGID_19_" gradientUnits="userSpaceOnUse" x1="1053.3806" y1="737.4459" x2="1262.6194" y2="737.4459">
		<stop  offset="0" style="stop-color:#004D97"/>
		<stop  offset="1" style="stop-color:#057CD3"/>
	</linearGradient>
	<polygon fill-rule="evenodd" clip-rule="evenodd" fill="url(#SVGID_19_)" points="1192.9,788.9 1262.6,760.1 1123,686 
		1053.4,714.8 	"/>
	<linearGradient id="SVGID_20_" gradientUnits="userSpaceOnUse" x1="1123.0219" y1="652.6379" x2="1262.6194" y2="652.6379">
		<stop  offset="0" style="stop-color:#0083DF"/>
		<stop  offset="1" style="stop-color:#17A3D4"/>
	</linearGradient>
	<polygon fill-rule="evenodd" clip-rule="evenodd" fill="url(#SVGID_20_)" points="1262.6,760.1 1123,686 1217.2,545.1 	"/>
</g>
<g>
	<linearGradient id="SVGID_21_" gradientUnits="userSpaceOnUse" x1="828.0753" y1="760.6362" x2="828.0753" y2="520.4868">
		<stop  offset="0" style="stop-color:#00CCFF"/>
		<stop  offset="1" style="stop-color:#8FE9DF"/>
	</linearGradient>
	<polygon fill-rule="evenodd" clip-rule="evenodd" fill="url(#SVGID_21_)" points="870,520.5 829.6,760.6 786.2,728.9 	"/>
	<linearGradient id="SVGID_22_" gradientUnits="userSpaceOnUse" x1="870" y1="640.5615" x2="953.8495" y2="640.5615">
		<stop  offset="0" style="stop-color:#004D97"/>
		<stop  offset="1" style="stop-color:#057CD3"/>
	</linearGradient>
	<polygon fill-rule="evenodd" clip-rule="evenodd" fill="url(#SVGID_22_)" points="953.8,728.9 910.5,760.6 870,520.5 	"/>
	<linearGradient id="SVGID_23_" gradientUnits="userSpaceOnUse" x1="829.5801" y1="639.9253" x2="910.455" y2="639.9253">
		<stop  offset="0" style="stop-color:#0083DF"/>
		<stop  offset="1" style="stop-color:#17A3D4"/>
	</linearGradient>
	<polygon fill-rule="evenodd" clip-rule="evenodd" fill="url(#SVGID_23_)" points="910.5,760 829.6,760 870,519.9 	"/>
	<linearGradient id="SVGID_24_" gradientUnits="userSpaceOnUse" x1="829.5801" y1="786.6249" x2="910.455" y2="786.6249">
		<stop  offset="0" style="stop-color:#004D97"/>
		<stop  offset="1" style="stop-color:#057CD3"/>
	</linearGradient>
	<polygon fill-rule="evenodd" clip-rule="evenodd" fill="url(#SVGID_24_)" points="910.5,760 829.6,760 870,813.2 	"/>
	<linearGradient id="SVGID_25_" gradientUnits="userSpaceOnUse" x1="870" y1="771.3947" x2="953.8495" y2="771.3947">
		<stop  offset="0" style="stop-color:#003189"/>
		<stop  offset="1" style="stop-color:#0563BE"/>
	</linearGradient>
	<polygon fill-rule="evenodd" clip-rule="evenodd" fill="url(#SVGID_25_)" points="953.8,728.9 910.5,760.6 870,813.9 	"/>
	<linearGradient id="SVGID_26_" gradientUnits="userSpaceOnUse" x1="786.1505" y1="771.3947" x2="870" y2="771.3947">
		<stop  offset="0" style="stop-color:#0083DF"/>
		<stop  offset="1" style="stop-color:#17A3D4"/>
	</linearGradient>
	<polygon fill-rule="evenodd" clip-rule="evenodd" fill="url(#SVGID_26_)" points="870,813.9 829.6,760.6 786.2,728.9 	"/>
</g>
<g>
	<linearGradient id="SVGID_27_" gradientUnits="userSpaceOnUse" x1="459.8233" y1="782.4739" x2="566" y2="782.4739">
		<stop  offset="0" style="stop-color:#0083DF"/>
		<stop  offset="1" style="stop-color:#17A3D4"/>
	</linearGradient>
	<polygon fill-rule="evenodd" clip-rule="evenodd" fill="url(#SVGID_27_)" points="459.8,705.6 566,760.3 566,859.4 	"/>
	<linearGradient id="SVGID_28_" gradientUnits="userSpaceOnUse" x1="566" y1="782.4739" x2="672.1767" y2="782.4739">
		<stop  offset="0" style="stop-color:#004D97"/>
		<stop  offset="1" style="stop-color:#057CD3"/>
	</linearGradient>
	<polygon fill-rule="evenodd" clip-rule="evenodd" fill="url(#SVGID_28_)" points="672.2,705.6 566,760.3 566,859.4 	"/>
	<linearGradient id="SVGID_29_" gradientUnits="userSpaceOnUse" x1="566.3847" y1="760.2923" x2="566.3847" y2="650.8186">
		<stop  offset="0" style="stop-color:#00CCFF"/>
		<stop  offset="1" style="stop-color:#8FE9DF"/>
	</linearGradient>
	<polygon fill-rule="evenodd" clip-rule="evenodd" fill="url(#SVGID_29_)" points="672.6,705.6 566.4,760.3 460.2,705.6 
		566.4,650.8 	"/>
	<linearGradient id="SVGID_30_" gradientUnits="userSpaceOnUse" x1="608.4844" y1="676.6389" x2="524.2499" y2="676.6389">
		<stop  offset="0" style="stop-color:#004399"/>
		<stop  offset="1" style="stop-color:#17A3D4"/>
	</linearGradient>
	<path fill-rule="evenodd" clip-rule="evenodd" fill="url(#SVGID_30_)" d="M566.4,634.5c23.2,0,42.1,18.9,42.1,42.1
		s-18.9,42.1-42.1,42.1c-23.3,0-42.1-18.9-42.1-42.1S543.1,634.5,566.4,634.5L566.4,634.5z"/>
	<linearGradient id="SVGID_31_" gradientUnits="userSpaceOnUse" x1="511.9117" y1="683.1814" x2="511.9117" y2="474.625">
		<stop  offset="0" style="stop-color:#00CCFF"/>
		<stop  offset="1" style="stop-color:#8FE9DF"/>
	</linearGradient>
	<polygon fill-rule="evenodd" clip-rule="evenodd" fill="url(#SVGID_31_)" points="458.8,628.4 565,683.2 565,474.6 	"/>
	<linearGradient id="SVGID_32_" gradientUnits="userSpaceOnUse" x1="565" y1="578.9032" x2="671.1767" y2="578.9032">
		<stop  offset="0" style="stop-color:#0083DF"/>
		<stop  offset="1" style="stop-color:#17A3D4"/>
	</linearGradient>
	<polygon fill-rule="evenodd" clip-rule="evenodd" fill="url(#SVGID_32_)" points="671.2,628.4 565,683.2 565,474.6 	"/>
</g>
<g>
	<linearGradient id="SVGID_33_" gradientUnits="userSpaceOnUse" x1="136.4366" y1="703.0636" x2="225.3605" y2="703.0636">
		<stop  offset="0" style="stop-color:#0083DF"/>
		<stop  offset="1" style="stop-color:#17A3D4"/>
	</linearGradient>
	<polygon fill-rule="evenodd" clip-rule="evenodd" fill="url(#SVGID_33_)" points="156.8,641.1 211.8,688.3 225.4,765 178.8,765 
		136.4,688.3 	"/>
	<linearGradient id="SVGID_34_" gradientUnits="userSpaceOnUse" x1="211.7822" y1="705.3727" x2="341.196" y2="705.3727">
		<stop  offset="0" style="stop-color:#004D97"/>
		<stop  offset="1" style="stop-color:#057CD3"/>
	</linearGradient>
	<polygon fill-rule="evenodd" clip-rule="evenodd" fill="url(#SVGID_34_)" points="286.2,645.7 211.8,688.3 225.4,765 319.6,765 
		341.2,693 	"/>
	<linearGradient id="SVGID_35_" gradientUnits="userSpaceOnUse" x1="272.6396" y1="631.1987" x2="361.5634" y2="631.1987">
		<stop  offset="0" style="stop-color:#0083DF"/>
		<stop  offset="1" style="stop-color:#17A3D4"/>
	</linearGradient>
	<polygon fill-rule="evenodd" clip-rule="evenodd" fill="url(#SVGID_35_)" points="341.2,693.4 286.2,645.9 272.6,569 319.2,569 
		361.6,645.9 	"/>
	<polygon fill-rule="evenodd" clip-rule="evenodd" fill="#00ABD6" points="211.8,688.8 286.2,645.9 272.6,569 178.4,569 
		156.8,641.3 	"/>
	<linearGradient id="SVGID_36_" gradientUnits="userSpaceOnUse" x1="157.434" y1="689.0533" x2="157.434" y2="569">
		<stop  offset="0" style="stop-color:#00CCFF"/>
		<stop  offset="1" style="stop-color:#8FE9DF"/>
	</linearGradient>
	<polygon fill-rule="evenodd" clip-rule="evenodd" fill="url(#SVGID_36_)" points="156.8,641.3 178.4,569 173.6,569 136.4,689.1 	
		"/>
	<linearGradient id="SVGID_37_" gradientUnits="userSpaceOnUse" x1="319.5687" y1="705.0389" x2="361.5634" y2="705.0389">
		<stop  offset="0" style="stop-color:#003189"/>
		<stop  offset="1" style="stop-color:#0563BE"/>
	</linearGradient>
	<polygon fill-rule="evenodd" clip-rule="evenodd" fill="url(#SVGID_37_)" points="341.2,693 319.6,765 324.4,765 361.6,645.1 	"/>
</g>
</svg>
