<?xml version="1.0" encoding="UTF-8" standalone="no"?>
<!-- Created with Inkscape (http://www.inkscape.org/) -->

<svg
   version="1.1"
   id="svg1"
   width="655.35999"
   height="655.35999"
   viewBox="0 0 655.35999 655.35999"
   sodipodi:docname="close.svg"
   inkscape:version="1.3 (0e150ed6c4, 2023-07-21)"
   xmlns:inkscape="http://www.inkscape.org/namespaces/inkscape"
   xmlns:sodipodi="http://sodipodi.sourceforge.net/DTD/sodipodi-0.dtd"
   xmlns="http://www.w3.org/2000/svg"
   xmlns:svg="http://www.w3.org/2000/svg">
  <defs
     id="defs1">
    <clipPath
       clipPathUnits="userSpaceOnUse"
       id="clipPath2">
      <path
         d="M 0,0 H 4915 V 4915 H 0 Z"
         id="path2" />
    </clipPath>
    <clipPath
       clipPathUnits="userSpaceOnUse"
       id="clipPath3">
      <path
         d="M 0,0 H 4915 V 4915 H 0 Z"
         id="path3" />
    </clipPath>
    <clipPath
       clipPathUnits="userSpaceOnUse"
       id="clipPath4">
      <path
         d="M 0,0 H 4915 V 4915 H 0 Z"
         id="path4" />
    </clipPath>
    <clipPath
       clipPathUnits="userSpaceOnUse"
       id="clipPath5">
      <path
         d="M 0,0 H 4915 V 4915 H 0 Z"
         id="path5" />
    </clipPath>
    <clipPath
       clipPathUnits="userSpaceOnUse"
       id="clipPath6">
      <path
         d="M 0,0 H 4915 V 4915 H 0 Z"
         id="path6" />
    </clipPath>
  </defs>
  <sodipodi:namedview
     id="namedview1"
     pagecolor="#ffffff"
     bordercolor="#000000"
     borderopacity="0.25"
     inkscape:showpageshadow="2"
     inkscape:pageopacity="0.0"
     inkscape:pagecheckerboard="0"
     inkscape:deskcolor="#d1d1d1"
     inkscape:zoom="1.2939454"
     inkscape:cx="301.40376"
     inkscape:cy="214.07396"
     inkscape:window-width="1920"
     inkscape:window-height="1052"
     inkscape:window-x="1920"
     inkscape:window-y="0"
     inkscape:window-maximized="1"
     inkscape:current-layer="g1">
    <inkscape:page
       x="0"
       y="0"
       inkscape:label="1"
       id="page1"
       width="655.35999"
       height="655.35999"
       margin="0"
       bleed="0" />
  </sodipodi:namedview>
  <g
     id="g1"
     inkscape:groupmode="layer"
     inkscape:label="1">
    <path
       id="path1"
       d="M 921.598,4915.2 H 3993.6 c 506.87,0 921.59,-414.72 921.59,-921.59 V 921.602 C 4915.19,414.719 4500.47,0 3993.6,0 H 921.598 C 414.719,0 0,414.719 0,921.602 V 3993.61 c 0,506.87 414.719,921.59 921.598,921.59"
       style="fill:#616161;fill-opacity:1;fill-rule:evenodd;stroke:none"
       transform="matrix(0.13333333,0,0,-0.13333333,0,655.36)" />
    <g
       id="g11">
      <path
         d="m 3546.45,3399.98 2726.11,-2726.113 22.33,-26.406 21.69,-26.934 21.05,-27.461 20.41,-27.976 19.74,-28.481 19.07,-28.972 18.39,-29.453 17.69,-29.922 16.98,-30.379 16.27,-30.832 15.53,-31.258 14.79,-31.691 14.04,-32.098 13.28,-32.5 12.51,-32.895 11.72,-33.269 10.92,-33.645 10.11,-33.992 9.3,-34.3358 8.45,-34.668 7.62,-35 6.76,-35.3008 5.9,-35.6172 5.03,-35.8867 4.13,-36.1715 3.24,-36.45 2.32,-36.687 1.41,-36.934 0.47,-37.168 -2726.12,2726.116 -0.46,37.17 -1.41,36.93 -2.33,36.7 -3.23,36.44 -4.13,36.17 -5.03,35.89 -5.9,35.61 -6.76,35.3 -7.61,35 -8.47,34.67 -9.29,34.34 -10.11,34 -10.92,33.63 -11.72,33.28 -12.51,32.89 -13.27,32.5 -14.05,32.1 -14.79,31.68 -15.54,31.27 -16.27,30.83 -16.98,30.38 -17.68,29.92 -18.39,29.45 -19.08,28.98 -19.73,28.48 -20.41,27.97 -21.06,27.46 -21.69,26.94 -22.32,26.4"
         style="fill:#4c4c4c;fill-opacity:1;fill-rule:evenodd;stroke:none"
         transform="matrix(0.13333333,0,0,-0.13333333,0,655.36)"
         clip-path="url(#clipPath2)"
         id="path7" />
      <path
         d="m 3897.59,2457.6 2726.12,-2726.116 -0.47,-37.168 -1.41,-36.933 -2.32,-36.692 -3.24,-36.445 -4.13,-36.172 -5.03,-35.887 -5.9,-35.617 -6.76,-35.3 -7.62,-34.993 -8.45,-34.675 -9.3,-34.336 -10.11,-33.996 -10.92,-33.641 -11.72,-33.274 -12.51,-32.886 -13.28,-32.5 -14.04,-32.102 -14.79,-31.687 -15.53,-31.262 -16.27,-30.828 -16.98,-30.383 -17.69,-29.917 -18.39,-29.46 -19.07,-28.97 -19.74,-28.48 -20.41,-27.98 -21.05,-27.46 -21.69,-26.93 -22.33,-26.4 -22.93,-25.86 -23.54,-25.28 -24.14,-24.73 -2726.11,2726.12 24.14,24.72 23.53,25.3 22.94,25.85 22.32,26.39 21.69,26.93 21.06,27.47 20.41,27.97 19.73,28.49 19.08,28.97 18.39,29.45 17.68,29.92 16.98,30.38 16.27,30.83 15.54,31.27 14.79,31.68 14.05,32.1 13.27,32.5 12.51,32.9 11.72,33.26 10.92,33.65 10.11,33.99 9.29,34.33 8.47,34.68 7.61,34.99 6.76,35.32 5.9,35.6 5.03,35.9 4.13,36.17 3.23,36.44 2.33,36.69 1.41,36.93 0.46,37.17"
         style="fill:#4c4c4c;fill-opacity:1;fill-rule:evenodd;stroke:none"
         transform="matrix(0.13333333,0,0,-0.13333333,0,655.36)"
         clip-path="url(#clipPath3)"
         id="path8" />
      <path
         d="m 3475.84,1439.36 2726.11,-2726.12 -24.72,-24.13 -25.29,-23.54 -25.85,-22.94 -26.4,-22.33 -26.94,-21.69 -27.46,-21.05 -27.98,-20.4 -28.48,-19.75 -28.97,-19.07 -29.45,-18.38 -29.93,-17.69 -30.38,-16.99 -30.83,-16.26 -31.26,-15.54 -31.69,-14.79 -32.09,-14.04 -32.51,-13.28 -32.89,-12.5 -33.27,-11.72 -33.63,-10.92 -34,-10.12 -34.34,-9.29 -34.67,-8.46 -35,-7.62 -35.3,-6.76 -35.62,-5.91 -35.89,-5.01 -36.17,-4.13 -36.43,-3.25 -36.7,-2.32 -36.93,-1.41 -37.17,-0.47 -2726.11,2726.12 37.16,0.47 36.94,1.4 36.69,2.33 36.44,3.24 36.17,4.13 35.9,5.02 35.6,5.9 35.31,6.77 35,7.61 34.67,8.47 34.34,9.29 34,10.11 33.63,10.92 33.27,11.72 32.89,12.5 32.51,13.28 32.1,14.04 31.68,14.8 31.26,15.54 30.83,16.25 30.38,17 29.92,17.68 29.46,18.38 28.97,19.07 28.48,19.75 27.98,20.4 27.46,21.06 26.94,21.7 26.4,22.32 25.84,22.93 25.3,23.55 24.72,24.13"
         style="fill:#4c4c4c;fill-opacity:1;fill-rule:evenodd;stroke:none"
         transform="matrix(0.13333333,0,0,-0.13333333,0,655.36)"
         clip-path="url(#clipPath4)"
         id="path9" />
      <path
         d="m 2457.6,1017.6 2726.11,-2726.12 -37.17,0.47 -36.93,1.41 -36.7,2.32 -36.44,3.25 -36.16,4.13 -35.9,5.01 -35.61,5.91 -35.31,6.76 -34.99,7.62 -34.68,8.46 -34.33,9.29 -34,10.12 -33.64,10.92 -33.26,11.72 -32.9,12.5 -32.5,13.28 -32.1,14.04 -31.69,14.79 -31.26,15.54 -30.83,16.26 -30.38,16.99 -29.92,17.69 -29.46,18.38 -28.96,19.07 -28.49,19.75 -27.97,20.4 -27.47,21.05 -26.93,21.69 -26.4,22.33 -2726.11,2726.12 26.4,-22.32 26.93,-21.7 27.47,-21.06 27.98,-20.4 28.47,-19.75 28.98,-19.07 29.45,-18.38 29.92,-17.68 30.38,-17 30.83,-16.25 31.26,-15.54 31.69,-14.8 32.09,-14.04 32.51,-13.28 32.89,-12.5 33.27,-11.72 33.64,-10.92 34,-10.11 34.33,-9.29 34.68,-8.47 34.99,-7.61 35.31,-6.77 35.61,-5.9 35.9,-5.02 36.16,-4.13 36.44,-3.24 36.69,-2.33 36.94,-1.4 37.17,-0.47"
         style="fill:#4c4c4c;fill-opacity:1;fill-rule:evenodd;stroke:none"
         transform="matrix(0.13333333,0,0,-0.13333333,0,655.36)"
         clip-path="url(#clipPath5)"
         id="path10" />
      <path
         d="m 2457.6,3897.6 c 397.65,0 757.65,-161.18 1018.24,-421.76 260.58,-260.59 421.75,-620.59 421.75,-1018.24 0,-397.65 -161.17,-757.66 -421.75,-1018.24 -260.59,-260.58 -620.59,-421.76 -1018.24,-421.76 -397.65,0 -757.66,161.18 -1018.24,421.76 -260.59,260.58 -421.76,620.59 -421.76,1018.24 0,397.65 161.17,757.65 421.76,1018.24 260.58,260.58 620.59,421.76 1018.24,421.76"
         style="fill:#4c4c4c;fill-opacity:1;fill-rule:evenodd;stroke:none"
         transform="matrix(0.13333333,0,0,-0.13333333,0,655.36)"
         clip-path="url(#clipPath6)"
         id="path11" />
    </g>
    <path
       id="path12"
       d="m 2045.01,2457.6 -615.72,615.72 c -18.75,18.74 -18.75,49.13 0,67.88 l 0.17,0.17 344.54,344.54 c 18.75,18.74 49.14,18.74 67.89,0 l 0.16,-0.18 615.55,-615.54 615.7,615.72 c 18.75,18.74 49.15,18.74 67.89,0 l 0.17,-0.18 344.54,-344.53 c 18.75,-18.75 18.75,-49.14 0,-67.88 l -0.17,-0.18 -615.54,-615.54 615.71,-615.71 c 18.75,-18.75 18.75,-49.14 0,-67.89 l -0.17,-0.17 -344.53,-344.54 c -18.75,-18.74 -49.15,-18.74 -67.88,0 l -0.18,0.17 -615.54,615.55 -615.71,-615.72 c -18.75,-18.74 -49.14,-18.74 -67.89,0 l -0.17,0.17 -344.54,344.54 c -18.75,18.75 -18.75,49.14 0,67.89 l 0.17,0.17 615.55,615.54 z m 1852.58,0 c 0,397.65 -161.17,757.65 -421.75,1018.24 -260.59,260.58 -620.59,421.76 -1018.24,421.76 -397.65,0 -757.66,-161.18 -1018.24,-421.76 -260.59,-260.59 -421.76,-620.59 -421.76,-1018.24 0,-397.65 161.17,-757.65 421.76,-1018.24 260.58,-260.58 620.59,-421.76 1018.24,-421.76 397.65,0 757.65,161.18 1018.24,421.76 260.58,260.59 421.75,620.59 421.75,1018.24"
       style="fill:#fefefe;fill-opacity:1;fill-rule:evenodd;stroke:none"
       transform="matrix(0.13333333,0,0,-0.13333333,0,655.36)" />
  </g>
</svg>
